Coordinates
version=1
nRows=30
nColumns=21
inDegrees=yes

Units are S.I. units (second, meters, Newtons, ...)
If the header above contains a line with 'inDegrees', this indicates whether rotational values are in degrees (yes) or radians (no).

endheader
time	sternoclavicular_r2	sternoclavicular_r3	unrotscap_r3	unrotscap_r2	acromioclavicular_r2	acromioclavicular_r3	acromioclavicular_r1	unrothum_r1	unrothum_r3	unrothum_r2	elv_angle	shoulder_elev	shoulder1_r2	shoulder_rot	elbow_flexion	pro_sup	deviation	flexion	wrist_hand_r1	wrist_hand_r3
      0.00000000	    -10.36277709	      4.38918328	     -4.38918328	     10.36277709	     -2.09825157	     16.95733108	      7.62220362	     -7.62220362	    -16.95733108	      2.09825157	    120.13478922	     42.82129696	   -120.13478922	     19.93982069	      1.15820870	      0.00000000	      0.00000000	     -0.00000000	     -0.00000000	      0.00000000
      0.02010050	    -10.36288170	      4.38922759	     -4.38922759	     10.36288170	     -2.09827275	     16.95750225	      7.62228056	     -7.62228056	    -16.95750225	      2.09827275	    120.13426391	     42.82172921	   -120.13426391	     19.93983755	      1.15748385	      0.00000000	      0.00000000	     -0.00000000	     -0.00000000	      0.00000000
      0.04020101	    -10.36291546	      4.38924189	     -4.38924189	     10.36291546	     -2.09827958	     16.95755751	      7.62230540	     -7.62230540	    -16.95755751	      2.09827958	    120.13415717	     42.82186875	   -120.13415717	     19.93983996	      1.15728171	      0.00000000	      0.00000000	     -0.00000000	     -0.00000000	      0.00000000
      0.06030151	    -10.36297344	      4.38926644	     -4.38926644	     10.36297344	     -2.09829132	     16.95765238	      7.62234804	     -7.62234804	    -16.95765238	      2.09829132	    120.13422498	     42.82210832	   -120.13422498	     19.93983909	      1.15723868	      0.00000000	      0.00000000	     -0.00000000	     -0.00000000	      0.00000000
      0.08040201	    -10.36311141	      4.38932488	     -4.38932488	     10.36311141	     -2.09831926	     16.95787815	      7.62244952	     -7.62244952	    -16.95787815	      2.09831926	    120.13446113	     42.82267844	   -120.13446113	     19.93983541	      1.15722647	      0.00000000	      0.00000000	     -0.00000000	     -0.00000000	      0.00000000
      0.10050251	    -10.36337237	      4.38943541	     -4.38943541	     10.36337237	     -2.09837210	     16.95830518	      7.62264147	     -7.62264147	    -16.95830518	      2.09837210	    120.13491876	     42.82375679	   -120.13491876	     19.93982794	      1.15721135	      0.00000000	      0.00000000	     -0.00000000	     -0.00000000	      0.00000000
      0.12060302	    -10.36379598	      4.38961483	     -4.38961483	     10.36379598	     -2.09845787	     16.95899835	      7.62295304	     -7.62295304	    -16.95899835	      2.09845787	    120.13565918	     42.82550722	   -120.13565918	     19.93981540	      1.15717680	      0.00000000	      0.00000000	     -0.00000000	     -0.00000000	      0.00000000
      0.14070352	    -10.36442331	      4.38988054	     -4.38988054	     10.36442331	     -2.09858489	     16.96002491	      7.62341447	     -7.62341447	    -16.96002491	      2.09858489	    120.13671904	     42.82809951	   -120.13671904	     19.93979630	      1.15707035	      0.00000000	      0.00000000	     -0.00000000	     -0.00000000	      0.00000000
      0.16080402	    -10.36528881	      4.39024713	     -4.39024713	     10.36528881	     -2.09876014	     16.96144119	      7.62405108	     -7.62405108	    -16.96144119	      2.09876014	    120.13818037	     42.83167596	   -120.13818037	     19.93976989	      1.15691908	      0.00000000	      0.00000000	     -0.00000000	     -0.00000000	      0.00000000
      0.18090452	    -10.36642696	      4.39072919	     -4.39072919	     10.36642696	     -2.09899059	     16.96330361	      7.62488823	     -7.62488823	    -16.96330361	      2.09899059	    120.14010771	     42.83637902	   -120.14010771	     19.93973496	      1.15672311	      0.00000000	      0.00000000	     -0.00000000	     -0.00000000	      0.00000000
      0.20100503	    -10.36787152	      4.39134104	     -4.39134104	     10.36787152	     -2.09928308	     16.96566745	      7.62595076	     -7.62595076	    -16.96566745	      2.09928308	    120.14256101	     42.84234827	   -120.14256101	     19.93969034	      1.15647897	      0.00000000	      0.00000000	     -0.00000000	     -0.00000000	      0.00000000
      0.22110553	    -10.36965523	      4.39209653	     -4.39209653	     10.36965523	     -2.09964425	     16.96858626	      7.62726274	     -7.62726274	    -16.96858626	      2.09964425	    120.14559755	     42.84971896	   -120.14559755	     19.93963495	      1.15618239	      0.00000000	      0.00000000	     -0.00000000	     -0.00000000	      0.00000000
      0.24120603	    -10.37180973	      4.39300908	     -4.39300908	     10.37180973	     -2.10008049	     16.97211182	      7.62884746	     -7.62884746	    -16.97211182	      2.10008049	    120.14927247	     42.85862184	   -120.14927247	     19.93956773	      1.15582901	      0.00000000	      0.00000000	     -0.00000000	     -0.00000000	      0.00000000
      0.26130653	    -10.37436558	      4.39409162	     -4.39409162	     10.37436558	     -2.10059800	     16.97629413	      7.63072738	     -7.63072738	    -16.97629413	      2.10059800	    120.15363879	     42.86918318	   -120.15363879	     19.93948761	      1.15541448	      0.00000000	      0.00000000	     -0.00000000	     -0.00000000	      0.00000000
      0.28140704	    -10.37735226	      4.39535663	     -4.39535663	     10.37735226	     -2.10120274	     16.98118145	      7.63292419	     -7.63292419	    -16.98118145	      2.10120274	    120.15874755	     42.88152481	   -120.15874755	     19.93939359	      1.15493447	      0.00000000	      0.00000000	     -0.00000000	     -0.00000000	      0.00000000
      0.30150754	    -10.38079822	      4.39681618	     -4.39681618	     10.38079822	     -2.10190048	     16.98682030	      7.63545882	     -7.63545882	    -16.98682030	      2.10190048	    120.16464788	     42.89576426	   -120.16464788	     19.93928466	      1.15438474	      0.00000000	      0.00000000	     -0.00000000	     -0.00000000	      0.00000000
      0.32160804	    -10.38473085	      4.39848185	     -4.39848185	     10.38473085	     -2.10269675	     16.99325554	      7.63835141	     -7.63835141	    -16.99325554	      2.10269675	    120.17138701	     42.91201476	   -120.17138701	     19.93915983	      1.15376117	      0.00000000	      0.00000000	     -0.00000000	     -0.00000000	      0.00000000
      0.34170854	    -10.38917654	      4.40036484	     -4.40036484	     10.38917654	     -2.10359692	     17.00053033	      7.64162138	     -7.64162138	    -17.00053033	      2.10359692	    120.17901045	     42.93038535	   -120.17901045	     19.93901810	      1.15305981	      0.00000000	      0.00000000	     -0.00000000	     -0.00000000	      0.00000000
      0.36180905	    -10.39416067	      4.40247588	     -4.40247588	     10.39416067	     -2.10460610	     17.00868621	      7.64528739	     -7.64528739	    -17.00868621	      2.10460610	    120.18756210	     42.95098088	   -120.18756210	     19.93885850	      1.15227696	      0.00000000	      0.00000000	     -0.00000000	     -0.00000000	      0.00000000
      0.38190955	    -10.39970761	      4.40482530	     -4.40482530	     10.39970761	     -2.10572924	     17.01776305	      7.64936737	     -7.64936737	    -17.01776305	      2.10572924	    120.19708434	     42.97390206	   -120.19708434	     19.93868002	      1.15140931	      0.00000000	      0.00000000	     -0.00000000	     -0.00000000	      0.00000000
      0.40201005	    -10.40584073	      4.40742300	     -4.40742300	     10.40584073	     -2.10697108	     17.02779910	      7.65387851	     -7.65387851	    -17.02779910	      2.10697108	    120.20761825	     42.99924548	   -120.20761825	     19.93848166	      1.15045409	      0.00000000	      0.00000000	     -0.00000000	     -0.00000000	      0.00000000
      0.42211055	    -10.41258241	      4.41027846	     -4.41027846	     10.41258241	     -2.10833613	     17.03883098	      7.65883726	     -7.65883726	    -17.03883098	      2.10833613	    120.21920373	     43.02710359	   -120.21920373	     19.93826239	      1.14940924	      0.00000000	      0.00000000	     -0.00000000	     -0.00000000	      0.00000000
      0.44221106	    -10.41995402	      4.41340073	     -4.41340073	     10.41995402	     -2.10982873	     17.05089365	      7.66425935	     -7.66425935	    -17.05089365	      2.10982873	    120.23187975	     43.05756472	   -120.23187975	     19.93802115	      1.14827365	      0.00000000	      0.00000000	     -0.00000000	     -0.00000000	      0.00000000
      0.46231156	    -10.42797593	      4.41679843	     -4.41679843	     10.42797593	     -2.11145300	     17.06402046	      7.67015976	     -7.67015976	    -17.06402046	      2.11145300	    120.24568448	     43.09071304	   -120.24568448	     19.93775686	      1.14704750	      0.00000000	      0.00000000	     -0.00000000	     -0.00000000	      0.00000000
      0.48241206	    -10.43666750	      4.42047977	     -4.42047977	     10.43666750	     -2.11321287	     17.07824308	      7.67655273	     -7.67655273	    -17.07824308	      2.11321287	    120.26065552	     43.12662853	   -120.26065552	     19.93746837	      1.14573258	      0.00000000	      0.00000000	     -0.00000000	     -0.00000000	      0.00000000
      0.50251256	    -10.44604707	      4.42445251	     -4.42445251	     10.44604707	     -2.11511204	     17.09359152	      7.68345175	     -7.68345175	    -17.09359152	      2.11511204	    120.27683000	     43.16538700	   -120.27683000	     19.93715449	      1.14433273	      0.00000000	      0.00000000	     -0.00000000	     -0.00000000	      0.00000000
      0.52261307	    -10.45613197	      4.42872400	     -4.42872400	     10.45613197	     -2.11715403	     17.11009415	      7.69086957	     -7.69086957	    -17.11009415	      2.11715403	    120.29424471	     43.20706007	   -120.29424471	     19.93681398	      1.14285432	      0.00000000	      0.00000000	     -0.00000000	     -0.00000000	      0.00000000
      0.54271357	    -10.46693856	      4.43330116	     -4.43330116	     10.46693856	     -2.11934214	     17.12777772	      7.69881821	     -7.69881821	    -17.12777772	      2.11934214	    120.31293593	     43.25171529	   -120.31293593	     19.93644552	      1.14130679	      0.00000000	      0.00000000	     -0.00000000	     -0.00000000	      0.00000000
      0.56281407	    -10.47848223	      4.43819052	     -4.43819052	     10.47848223	     -2.12167950	     17.14666744	      7.70730900	     -7.70730900	    -17.14666744	      2.12167950	    120.33293924	     43.29941632	   -120.33293924	     19.93604777	      1.13970303	      0.00000000	      0.00000000	     -0.00000000	     -0.00000000	      0.00000000
      0.58291457	    -10.49077759	      4.44339825	     -4.44339825	     10.49077759	     -2.12416906	     17.16678718	      7.71635269	     -7.71635269	    -17.16678718	      2.12416906	    120.35428871	     43.35022347	   -120.35428871	     19.93561934	      1.13805966	      0.00000000	      0.00000000	     -0.00000000	     -0.00000000	      0.00000000
